<svg width="25" height="20" viewBox="0 0 25 20" fill="none" xmlns="http://www.w3.org/2000/svg">
<path d="M12.5463 12.8332C13.2715 12.8332 13.967 12.6028 14.4797 12.1925C14.9925 11.7823 15.2806 11.2259 15.2806 10.6457C15.2806 10.5817 15.277 10.5182 15.2701 10.4555L12.3085 12.8248C12.3868 12.8303 12.4659 12.8332 12.5463 12.8332ZM21.597 3.87932L20.5541 3.04573C20.5174 3.01645 20.4678 3 20.416 3C20.3642 3 20.3146 3.01645 20.2779 3.04573L17.609 5.18147C16.1367 4.57952 14.4816 4.27854 12.6439 4.27854C7.95153 4.27854 4.45055 6.23362 2.14098 10.1438C2.04815 10.301 2 10.4728 2 10.6467C2 10.8206 2.04815 10.9924 2.14098 11.1496C3.06383 12.7047 4.17508 13.9511 5.47472 14.8889L2.89196 16.9543C2.85536 16.9836 2.8348 17.0233 2.8348 17.0648C2.8348 17.1062 2.85536 17.1459 2.89196 17.1752L3.93419 18.009C3.97082 18.0383 4.02048 18.0547 4.07225 18.0547C4.12403 18.0547 4.17369 18.0383 4.21032 18.009L21.597 4.10042C21.6152 4.0859 21.6296 4.06867 21.6394 4.0497C21.6493 4.03073 21.6543 4.0104 21.6543 3.98987C21.6543 3.96934 21.6493 3.949 21.6394 3.93003C21.6296 3.91107 21.6152 3.89383 21.597 3.87932ZM8.24938 10.6457C8.24931 10.052 8.44148 9.46836 8.80716 8.9517C9.17284 8.43503 9.69957 8.00295 10.336 7.69754C10.9725 7.39214 11.697 7.22382 12.4389 7.20899C13.1809 7.19416 13.915 7.33332 14.5697 7.61292L13.3827 8.56252C12.904 8.4399 12.3923 8.42513 11.9038 8.51984C11.4153 8.61455 10.9688 8.81508 10.6134 9.09942C10.2579 9.38376 10.0073 9.74093 9.88889 10.1317C9.77051 10.5226 9.78897 10.9319 9.94225 11.3149L8.75524 12.2645C8.42213 11.7666 8.24834 11.2104 8.24938 10.6457V10.6457Z" fill="black"/>
<path d="M23.1468 10.1418C22.2875 8.69393 21.2646 7.51326 20.0782 6.59985L16.5592 9.41528C16.8558 10.0356 16.9216 10.7114 16.7485 11.361C16.5754 12.0106 16.1709 12.6062 15.5839 13.0758C14.9968 13.5455 14.2523 13.8691 13.4403 14.0076C12.6283 14.146 11.7836 14.0934 11.0082 13.8561L8.0233 16.244C9.40807 16.7566 10.9483 17.0129 12.6439 17.0129C17.3363 17.0129 20.8373 15.0579 23.1468 11.1477C23.2397 10.9904 23.2878 10.8187 23.2878 10.6448C23.2878 10.4709 23.2397 10.2991 23.1468 10.1418V10.1418Z" fill="black"/>
</svg>
