<svg width="20" height="15" viewBox="0 0 20 15" fill="none" xmlns="http://www.w3.org/2000/svg">
<path d="M7.33929 7.5C7.33929 8.18338 7.60995 8.83877 8.09172 9.32199C8.57349 9.80522 9.22692 10.0767 9.90825 10.0767C10.5896 10.0767 11.243 9.80522 11.7248 9.32199C12.2065 8.83877 12.4772 8.18338 12.4772 7.5C12.4772 6.81662 12.2065 6.16123 11.7248 5.67801C11.243 5.19478 10.5896 4.92331 9.90825 4.92331C9.22692 4.92331 8.57349 5.19478 8.09172 5.67801C7.60995 6.16123 7.33929 6.81662 7.33929 7.5V7.5ZM19.8675 6.90644C17.6931 2.31212 14.4062 0 9.99999 0C5.59148 0 2.30689 2.31212 0.132451 6.90874C0.0452335 7.09398 0 7.29629 0 7.50115C0 7.70601 0.0452335 7.90832 0.132451 8.09356C2.30689 12.6879 5.59378 15 9.99999 15C14.4085 15 17.6931 12.6879 19.8675 8.09126C20.0442 7.71856 20.0442 7.28604 19.8675 6.90644V6.90644ZM9.90825 11.5491C7.67876 11.5491 5.87132 9.7362 5.87132 7.5C5.87132 5.2638 7.67876 3.45092 9.90825 3.45092C12.1377 3.45092 13.9452 5.2638 13.9452 7.5C13.9452 9.7362 12.1377 11.5491 9.90825 11.5491Z" fill="black"/>
</svg>
